<?xml version="1.0" encoding="utf-8"?>
<svg version="1.1" xmlns="http://www.w3.org/2000/svg" xmlns:xlink="http://www.w3.org/1999/xlink" x="0px"
	 y="0px" viewBox="0 0 566.9 283.5" style="enable-background:new 0 0 566.9 283.5;" xml:space="preserve">
<style type="text/css">
	.st0{fill:#878787;}
	.st1{fill:#880C32;}
	.st2{fill:#FFFFFF;}
	.st3{fill:none;stroke:#880C32;}
</style>
<g>
	<g>
		<path class="st0" d="M268.6,194.5l-5.7,7.3l-1.1,7.3h-2.2l1.1-7.3l-3.8-7.3h2.3l2.8,5.4l4.2-5.4H268.6z"/>
		<path class="st0" d="M275.2,194.3c1.7,0,3.1,0.6,4.2,1.7c1.1,1.1,1.6,2.6,1.6,4.4c0,2.5-0.8,4.7-2.3,6.3c-1.6,1.7-3.4,2.5-5.6,2.5
			c-1.7,0-3.1-0.6-4.2-1.7c-1.1-1.2-1.6-2.6-1.6-4.4c0-2.3,0.7-4.3,2.2-6.1C271,195.2,272.9,194.3,275.2,194.3z M273.1,207.5
			c1.5,0,2.8-0.7,4-2.2c1.1-1.5,1.7-3.2,1.7-5.3c0-1.3-0.3-2.2-1-3c-0.6-0.7-1.5-1.1-2.6-1.1c-1.7,0-3.1,0.8-4.1,2.3
			c-1.1,1.5-1.6,3.2-1.6,5.1c0,1.3,0.3,2.3,1,3C271.1,207.1,272,207.5,273.1,207.5z"/>
		<path class="st0" d="M297.1,194.5l-1.4,9c-0.3,1.9-1,3.3-2.2,4.3c-1.2,1-2.7,1.5-4.6,1.5c-1.7,0-3.1-0.4-4.1-1.2
			c-1-0.8-1.5-1.9-1.5-3.3c0-0.3,0-0.6,0.1-0.9l1.5-9.4h2.2l-1.5,9.6c0,0.2,0,0.4,0,0.6c0,0.9,0.3,1.6,1,2.1
			c0.7,0.5,1.5,0.8,2.6,0.8c0.9,0,1.7-0.2,2.4-0.6c0.7-0.4,1.2-0.9,1.4-1.5c0.3-0.6,0.5-1.5,0.7-2.6l1.3-8.4H297.1z"/>
		<path class="st0" d="M300.2,194.5h3c2.2,0,3.6,0.4,4.4,1.2c0.8,0.8,1.2,1.7,1.2,2.8c0,0.9-0.3,1.6-0.9,2.2
			c-0.6,0.6-1.4,1.1-2.5,1.3c0.5,0.3,0.9,0.8,1.4,1.6l2.9,5.5h-2.3l-1.9-3.5c-0.6-1.1-1.1-1.9-1.5-2.3c-0.4-0.4-1-0.7-1.9-0.7h-0.9
			l-1,6.4h-2.2L300.2,194.5z M302.1,196.2l-0.7,4.7h1.1c1.2,0,2.2-0.2,2.8-0.7c0.6-0.5,1-1.1,1-1.9c0-1.4-1-2.1-3-2.1H302.1z"/>
		<path class="st0" d="M319.6,194.5h2.4c1.7,0,3,0.3,3.9,1c0.9,0.7,1.3,1.6,1.3,2.7c0,1.3-0.8,2.2-2.3,2.9c2.3,0.7,3.4,2,3.4,3.9
			c0,1.2-0.5,2.2-1.6,3c-1.1,0.8-2.5,1.1-4.3,1.1h-5.1L319.6,194.5z M320.6,201.9l-0.9,5.5h2.5c1.3,0,2.2-0.2,2.9-0.7
			c0.7-0.4,1-1.1,1-1.9c0-0.8-0.4-1.5-1.2-2.1c-0.8-0.6-1.7-0.9-2.8-0.9H320.6z M321.5,196.1l-0.7,4.2h1.2c0.9,0,1.6-0.2,2.2-0.6
			c0.5-0.4,0.8-0.9,0.8-1.6c0-1.3-0.9-2-2.8-2C322,196.1,321.8,196.1,321.5,196.1z"/>
		<path class="st0" d="M344,194.5l-1.4,9c-0.3,1.9-1,3.3-2.2,4.3c-1.2,1-2.7,1.5-4.6,1.5c-1.7,0-3.1-0.4-4.1-1.2
			c-1-0.8-1.5-1.9-1.5-3.3c0-0.3,0-0.6,0.1-0.9l1.5-9.4h2.2l-1.5,9.6c0,0.2,0,0.4,0,0.6c0,0.9,0.3,1.6,1,2.1
			c0.7,0.5,1.5,0.8,2.6,0.8c0.9,0,1.7-0.2,2.4-0.6c0.7-0.4,1.2-0.9,1.4-1.5c0.3-0.6,0.5-1.5,0.7-2.6l1.3-8.4H344z"/>
		<path class="st0" d="M354.4,194.9l-0.3,2c-0.9-0.5-1.8-0.8-2.9-0.8c-0.9,0-1.6,0.2-2.1,0.6c-0.5,0.4-0.8,0.9-0.8,1.6
			c0,0.3,0.1,0.7,0.4,1c0.2,0.4,1,1,2.2,1.8c1.2,0.9,2,1.6,2.4,2.3c0.4,0.7,0.6,1.3,0.6,2c0,1-0.4,2-1.3,2.7
			c-0.9,0.8-2.1,1.1-3.5,1.1c-1.3,0-2.6-0.3-4-1l0.3-2.1c1.5,0.9,2.8,1.4,3.8,1.4c0.6,0,1.1-0.2,1.6-0.5c0.5-0.3,0.8-0.8,0.8-1.4
			c0-0.4-0.1-0.8-0.4-1.2c-0.3-0.4-1-1-2.2-1.9c-1.2-0.9-2-1.7-2.4-2.3c-0.4-0.7-0.6-1.3-0.6-1.9c0-1.1,0.5-2.1,1.6-2.8
			c1-0.8,2.3-1.1,3.7-1.1C352.4,194.3,353.4,194.5,354.4,194.9z"/>
		<path class="st0" d="M360.4,194.5l-2.3,14.6h-2.2l2.3-14.6H360.4z"/>
		<path class="st0" d="M376.9,194.5l-2.3,14.6h-1.2l-8.1-10.7l-1.7,10.7h-2l2.3-14.6h1.1l8.2,10.8l1.7-10.8H376.9z"/>
		<path class="st0" d="M389.1,194.5l-0.3,1.7h-6.6l-0.7,4.6h5.8l-0.3,1.7h-5.8l-0.8,4.8h8.6l-0.3,1.7h-10.7l2.4-14.6H389.1z"/>
		<path class="st0" d="M399.9,194.9l-0.3,2c-0.9-0.5-1.8-0.8-2.9-0.8c-0.9,0-1.6,0.2-2.1,0.6c-0.5,0.4-0.8,0.9-0.8,1.6
			c0,0.3,0.1,0.7,0.4,1c0.2,0.4,1,1,2.2,1.8c1.2,0.9,2,1.6,2.4,2.3c0.4,0.7,0.6,1.3,0.6,2c0,1-0.4,2-1.3,2.7
			c-0.9,0.8-2.1,1.1-3.5,1.1c-1.3,0-2.6-0.3-4-1l0.3-2.1c1.5,0.9,2.8,1.4,3.8,1.4c0.6,0,1.1-0.2,1.6-0.5c0.5-0.3,0.8-0.8,0.8-1.4
			c0-0.4-0.1-0.8-0.4-1.2c-0.3-0.4-1-1-2.2-1.9c-1.2-0.9-2-1.7-2.4-2.3c-0.4-0.7-0.6-1.3-0.6-1.9c0-1.1,0.5-2.1,1.6-2.8
			c1-0.8,2.3-1.1,3.7-1.1C397.9,194.3,398.9,194.5,399.9,194.9z"/>
		<path class="st0" d="M410.9,194.9l-0.3,2c-0.9-0.5-1.8-0.8-2.9-0.8c-0.9,0-1.6,0.2-2.1,0.6c-0.5,0.4-0.8,0.9-0.8,1.6
			c0,0.3,0.1,0.7,0.4,1c0.2,0.4,1,1,2.2,1.8c1.2,0.9,2,1.6,2.4,2.3c0.4,0.7,0.6,1.3,0.6,2c0,1-0.4,2-1.3,2.7
			c-0.9,0.8-2.1,1.1-3.5,1.1c-1.3,0-2.6-0.3-4-1l0.3-2.1c1.5,0.9,2.8,1.4,3.8,1.4c0.6,0,1.1-0.2,1.6-0.5c0.5-0.3,0.8-0.8,0.8-1.4
			c0-0.4-0.1-0.8-0.4-1.2c-0.3-0.4-1-1-2.2-1.9c-1.2-0.9-2-1.7-2.4-2.3c-0.4-0.7-0.6-1.3-0.6-1.9c0-1.1,0.5-2.1,1.6-2.8
			c1-0.8,2.3-1.1,3.7-1.1C408.9,194.3,409.9,194.5,410.9,194.9z"/>
		<path class="st0" d="M421,194.5h2.8c1.7,0,3,0.3,3.9,1c0.9,0.7,1.4,1.7,1.4,3.1c0,1.1-0.5,2.1-1.4,3c-0.9,0.9-2.2,1.3-3.9,1.3h-2
			l-1,6.2h-2.3L421,194.5z M423,196.2l-0.8,5h1.6c1,0,1.8-0.3,2.3-0.8c0.6-0.5,0.8-1.1,0.8-1.9c0-0.7-0.3-1.3-0.8-1.7
			c-0.5-0.4-1.3-0.6-2.2-0.6H423z"/>
		<path class="st0" d="M436.5,194.4l3.2,14.7h-2l-1-4.6h-5.1l-2.2,4.6h-2.2l7.2-14.7H436.5z M432.3,203h4.1l-1.3-6L432.3,203z"/>
		<path class="st0" d="M443.8,194.5h3c2.2,0,3.6,0.4,4.4,1.2c0.8,0.8,1.2,1.7,1.2,2.8c0,0.9-0.3,1.6-0.9,2.2
			c-0.6,0.6-1.4,1.1-2.5,1.3c0.5,0.3,0.9,0.8,1.4,1.6l2.9,5.5h-2.3l-1.9-3.5c-0.6-1.1-1.1-1.9-1.5-2.3c-0.4-0.4-1-0.7-1.9-0.7h-0.9
			l-1,6.4h-2.2L443.8,194.5z M445.7,196.2l-0.7,4.7h1.1c1.2,0,2.2-0.2,2.8-0.7c0.6-0.5,1-1.1,1-1.9c0-1.4-1-2.1-3-2.1H445.7z"/>
		<path class="st0" d="M465,194.5l-0.3,1.8h-4.6l-2,12.8h-2.3l2-12.8h-4.6l0.3-1.8H465z"/>
		<path class="st0" d="M480.2,194.5l-2.3,14.6h-1.2l-8.1-10.7l-1.7,10.7h-2l2.3-14.6h1.1l8.2,10.8l1.7-10.8H480.2z"/>
		<path class="st0" d="M492.4,194.5l-0.3,1.7h-6.6l-0.7,4.6h5.8l-0.3,1.7h-5.8l-0.8,4.8h8.6l-0.3,1.7h-10.7l2.4-14.6H492.4z"/>
		<path class="st0" d="M495.8,194.5h3c2.2,0,3.6,0.4,4.4,1.2c0.8,0.8,1.2,1.7,1.2,2.8c0,0.9-0.3,1.6-0.9,2.2
			c-0.6,0.6-1.4,1.1-2.5,1.3c0.5,0.3,0.9,0.8,1.4,1.6l2.9,5.5h-2.3l-1.9-3.5c-0.6-1.1-1.1-1.9-1.5-2.3c-0.4-0.4-1-0.7-1.9-0.7h-0.9
			l-1,6.4h-2.2L495.8,194.5z M497.8,196.2l-0.7,4.7h1.1c1.2,0,2.2-0.2,2.8-0.7c0.6-0.5,1-1.1,1-1.9c0-1.4-1-2.1-3-2.1H497.8z"/>
	</g>
	<path class="st1" d="M111.6,139.9l-43.3,0l-7.6,17.6c-1.9,4.3-2.8,7.6-2.8,9.7c0,1.7,0.8,3.2,2.4,4.5c1.6,1.3,5.1,2.1,10.5,2.5v3.1
		H35.7v-3.1c4.7-0.8,7.7-1.9,9.1-3.2c2.8-2.6,5.9-8,9.3-16.1l39.3-92h2.9l38.9,93c3.1,7.5,6,12.3,8.5,14.6c2.5,2.2,6.1,3.5,10.7,3.7
		v3.1h-44.1v-3.1c4.4-0.2,7.5-1,9-2.2c1.6-1.3,2.3-2.8,2.3-4.6c0-2.4-1.1-6.2-3.3-11.5L111.6,139.9z M109.3,133.8l-19-45.2
		l-19.4,45.2L109.3,133.8z"/>
	<g>
		<polyline class="st2" points="62.7,132.6 64.3,141 66.9,147.1 60.2,163.3 52.7,155.1 50.7,150.6 58,135.9 62.7,132.6 		"/>
		<path class="st3" d="M138.3,61.4l2.5,37.9h-2.5c-3.4-11.4-8.3-19.5-14.6-24.5c-6.3-5-13.9-7.5-22.7-7.5c-7.4,0-14.1,1.9-20.1,5.6
			c-6,3.8-10.7,9.7-14.1,18c-3.4,8.2-5.1,18.4-5.1,30.7c0,10.1,1.6,18.8,4.9,26.2c3.2,7.4,8.1,13.1,14.6,17
			c6.5,3.9,13.9,5.9,22.2,5.9c7.2,0,13.6-1.5,19.2-4.6c5.5-3.1,11.6-9.2,18.3-18.5l2.5,1.6c-5.6,9.9-12.1,17.2-19.6,21.8
			c-7.5,4.6-16.3,6.9-26.6,6.9c-18.5,0-32.8-6.8-42.9-20.6c-7.6-10.2-11.3-22.2-11.3-36c0-11.1,2.5-21.3,7.5-30.7
			c5-9.3,11.8-16.5,20.6-21.7c8.7-5.1,18.3-7.7,28.6-7.7c8.1,0,16,2,23.8,5.9c2.3,1.2,3.9,1.8,4.9,1.8c1.5,0,2.8-0.5,3.9-1.6
			c1.4-1.5,2.4-3.5,3-6.2H138.3z"/>
	</g>
	<path class="st3" d="M198.7,133.6l-28.4,40.6H188c2.7,0,4.8-0.6,6.3-1.8c1.5-1.2,2.7-3.6,3.9-7.2l1.1,0.2l-2,11.5h-35.2l0-1.2
		l27.7-39.5h-13.8c-2.3,0-4,0.2-5,0.8c-1,0.5-1.8,1.2-2.4,2.2c-0.5,0.9-1,2.7-1.5,5.3h-1.2l0.9-10.8H198.7z"/>
	<path class="st3" d="M230.9,162.3h-16.8l-2.9,6.8c-0.7,1.7-1.1,2.9-1.1,3.8c0,0.7,0.3,1.2,0.9,1.7c0.6,0.5,2,0.8,4.1,1v1.2h-13.6
		v-1.2c1.8-0.3,3-0.7,3.5-1.2c1.1-1,2.3-3.1,3.6-6.2l15.2-35.6h1.1l15.1,36c1.2,2.9,2.3,4.8,3.3,5.6c1,0.9,2.4,1.3,4.1,1.5v1.2
		h-17.1v-1.2c1.7-0.1,2.9-0.4,3.5-0.9c0.6-0.5,0.9-1.1,0.9-1.8c0-0.9-0.4-2.4-1.3-4.4L230.9,162.3z M230,160l-7.3-17.5l-7.5,17.5
		H230z"/>
	<path class="st3" d="M278.7,133.6l0.5,10.1H278c-0.2-1.8-0.5-3.1-1-3.8c-0.7-1.2-1.5-2.1-2.6-2.7c-1.1-0.6-2.5-0.9-4.3-0.9H264v33
		c0,2.7,0.3,4.3,0.9,5c0.8,0.9,2,1.3,3.7,1.3h1.5l0,1.2l-18.3,0v-1.2l1.5,0c1.8,0,3.1-0.6,3.9-1.7c0.5-0.7,0.7-2.2,0.7-4.7v-33h-5.2
		c-2,0-3.5,0.1-4.3,0.4c-1.1,0.4-2.1,1.2-2.8,2.3c-0.8,1.1-1.3,2.7-1.4,4.7l-1.2,0l0.5-10.1H278.7z"/>
	<path class="st3" d="M294.5,135.9V153l9.5,0c2.5,0,4.1-0.4,4.9-1.1c1.1-1,1.7-2.7,1.8-5.2h1.2v15.1h-1.2c-0.3-2.1-0.6-3.5-0.9-4.1
		c-0.4-0.7-1-1.3-1.9-1.7c-0.9-0.4-2.2-0.6-4-0.6l-9.5,0v14.3c0,1.9,0.1,3.1,0.3,3.5c0.2,0.4,0.5,0.7,0.9,1c0.4,0.2,1.2,0.4,2.4,0.4
		h7.3c2.4,0,4.2-0.2,5.3-0.5c1.1-0.3,2.2-1,3.2-2c1.3-1.3,2.7-3.3,4.1-6h1.3l-3.7,10.8l-33.3,0v-1.2l1.5,0c1,0,2-0.2,2.9-0.7
		c0.7-0.3,1.1-0.8,1.4-1.5c0.2-0.7,0.4-2.1,0.4-4.2v-28.1c0-2.7-0.3-4.4-0.8-5.1c-0.8-0.8-2-1.3-3.8-1.3h-1.5v-1.2l33.3,0l0.5,9.5
		h-1.2c-0.4-2.3-0.9-3.8-1.5-4.7c-0.5-0.9-1.3-1.5-2.4-1.9c-0.8-0.3-2.3-0.5-4.5-0.5H294.5z"/>
	<path class="st3" d="M360.1,132.6l1,14.7h-1c-1.3-4.4-3.2-7.6-5.6-9.5c-2.4-1.9-5.4-2.9-8.8-2.9c-2.9,0-5.5,0.7-7.8,2.2
		c-2.3,1.5-4.1,3.8-5.5,7c-1.3,3.2-2,7.2-2,11.9c0,3.9,0.6,7.3,1.9,10.2c1.3,2.9,3.1,5.1,5.7,6.6c2.5,1.5,5.4,2.3,8.6,2.3
		c2.8,0,5.3-0.6,7.4-1.8c2.1-1.2,4.5-3.6,7.1-7.2l1,0.6c-2.2,3.8-4.7,6.7-7.6,8.4c-2.9,1.8-6.3,2.7-10.3,2.7c-7.2,0-12.7-2.7-16.7-8
		c-2.9-3.9-4.4-8.6-4.4-14c0-4.3,1-8.3,2.9-11.9c1.9-3.6,4.6-6.4,8-8.4c3.4-2,7.1-3,11.1-3c3.1,0,6.2,0.8,9.2,2.3
		c0.9,0.5,1.5,0.7,1.9,0.7c0.6,0,1.1-0.2,1.5-0.6c0.6-0.6,0.9-1.4,1.2-2.4H360.1z"/>
	<path class="st1" d="M170.5,82.8c5.6,0,10.4,2.1,14.5,6.4c4.1,4.2,6.2,9.5,6.2,15.9c0,6.5-2.1,12-6.2,16.3c-4.1,4.3-9.1,6.5-15,6.5
		c-5.9,0-10.9-2.1-15-6.3c-4-4.2-6.1-9.7-6.1-16.4c0-6.8,2.3-12.4,7-16.8C160,84.7,164.9,82.8,170.5,82.8 M169.9,85.1
		c-3.9,0-7,1.4-9.3,4.3c-2.9,3.6-4.4,8.8-4.4,15.6c0,7,1.5,12.4,4.5,16.2c2.3,2.9,5.4,4.3,9.2,4.3c4.1,0,7.4-1.6,10-4.7
		c2.6-3.2,4-8.1,4-14.9c0-7.4-1.4-12.9-4.4-16.5C177.2,86.6,174,85.1,169.9,85.1"/>
	<path class="st1" d="M192.9,83.8l11.7,0l26.3,32.3l0-24.9c0-2.7-0.3-4.3-0.9-5c-0.8-0.9-2-1.3-3.7-1.3h-1.5v-1.2l15,0l0,1.2h-1.5
		c-1.8,0-3.1,0.5-3.9,1.6c-0.5,0.7-0.7,2.2-0.7,4.6v36.3h-1.1l-28.4-34.7v26.5c0,2.6,0.3,4.3,0.9,5c0.8,0.9,2,1.3,3.7,1.3l1.5,0v1.2
		h-15v-1.2h1.5c1.8,0,3.1-0.6,3.9-1.6c0.5-0.7,0.7-2.2,0.7-4.7v-30c-1.3-1.5-2.2-2.4-2.8-2.9c-0.7-0.5-1.6-0.9-2.8-1.3
		c-0.6-0.2-1.5-0.3-2.8-0.3L192.9,83.8z"/>
	<path class="st1" d="M270.6,82.8v14.9l-1.2,0c-0.4-2.9-1.1-5.1-2-6.8c-1-1.7-2.4-3-4.2-4c-1.8-1-3.7-1.5-5.7-1.5
		c-2.2,0-4,0.7-5.5,2c-1.4,1.3-2.2,2.9-2.2,4.6c0,1.3,0.5,2.5,1.4,3.6c1.3,1.6,4.4,3.7,9.4,6.4c4,2.2,6.8,3.8,8.2,5
		c1.5,1.2,2.6,2.5,3.4,4.1c0.8,1.6,1.2,3.2,1.2,4.9c0,3.3-1.3,6.1-3.8,8.4c-2.5,2.4-5.8,3.5-9.8,3.5c-1.2,0-2.4-0.1-3.5-0.3
		c-0.7-0.1-2-0.5-4.1-1.2c-2.1-0.7-3.4-1-3.9-1c-0.5,0-0.9,0.2-1.3,0.5c-0.3,0.3-0.5,1-0.7,2l-1.2,0v-14.8l1.2,0
		c0.5,3.1,1.3,5.4,2.2,6.9c0.9,1.5,2.4,2.8,4.3,3.8c1.9,1,4,1.5,6.3,1.5c2.6,0,4.7-0.7,6.3-2.1c1.5-1.4,2.3-3.1,2.3-5
		c0-1.1-0.3-2.1-0.9-3.2c-0.6-1.1-1.5-2.1-2.7-3c-0.8-0.6-3.1-2-6.8-4.1c-3.7-2.1-6.3-3.7-7.9-4.9c-1.6-1.2-2.7-2.6-3.5-4.1
		c-0.8-1.5-1.2-3.1-1.2-4.9c0-3.1,1.2-5.8,3.6-8c2.4-2.2,5.4-3.4,9.1-3.4c2.3,0,4.7,0.6,7.3,1.7c1.2,0.5,2,0.8,2.5,0.8
		c0.6,0,1-0.2,1.4-0.5c0.3-0.3,0.6-1,0.8-2H270.6z"/>
	<path class="st1" d="M308,85v-1.2h15.3l0,1.2h-1.6c-1.7,0-3,0.7-3.9,2.1c-0.4,0.7-0.7,2.2-0.7,4.6v17.5c0,4.3-0.4,7.7-1.3,10.1
		c-0.9,2.4-2.5,4.4-5.1,6.1c-2.5,1.7-5.9,2.6-10.3,2.6c-4.7,0-8.3-0.8-10.7-2.4c-2.4-1.6-4.2-3.8-5.2-6.6c-0.7-1.9-1-5.4-1-10.6
		V91.4c0-2.7-0.4-4.4-1.1-5.2c-0.7-0.8-1.9-1.2-3.5-1.2h-1.6l0-1.2h18.6V85h-1.7c-1.8,0-3,0.6-3.8,1.7c-0.5,0.8-0.8,2.3-0.8,4.8
		v18.8c0,1.7,0.2,3.6,0.5,5.7c0.3,2.2,0.9,3.8,1.7,5.1c0.8,1.2,2,2.2,3.5,3c1.5,0.8,3.4,1.2,5.6,1.2c2.8,0,5.3-0.6,7.6-1.8
		c2.2-1.2,3.7-2.8,4.6-4.7c0.8-1.9,1.2-5.2,1.2-9.7V91.4c0-2.7-0.3-4.4-0.9-5.1c-0.8-0.9-2.1-1.4-3.7-1.4H308z"/>
	<path class="st1" d="M361.3,115l1,0.2l-3.7,11.7h-33.4v-1.2h1.6c1.8,0,3.1-0.6,3.9-1.8c0.4-0.7,0.7-2.2,0.7-4.7V91.4
		c0-2.7-0.3-4.4-0.9-5.1c-0.8-0.9-2.1-1.4-3.7-1.4h-1.6v-1.2h19.5V85c-2.3,0-3.9,0.2-4.8,0.6c-0.9,0.4-1.6,1-1.9,1.7
		c-0.3,0.7-0.5,2.3-0.5,4.9v27.1c0,1.8,0.2,3,0.5,3.6c0.3,0.4,0.6,0.8,1.2,1c0.5,0.2,2.2,0.3,5,0.3l3.1,0c3.3,0,5.6-0.2,7-0.7
		c1.3-0.5,2.6-1.4,3.7-2.6C359.1,119.6,360.2,117.7,361.3,115"/>
	<path class="st1" d="M395.4,83.8l0.5,10.1h-1.2c-0.2-1.8-0.5-3-0.9-3.8c-0.7-1.2-1.5-2.1-2.6-2.7c-1.1-0.6-2.5-0.9-4.3-0.9l-6.1,0
		v32.9c0,2.7,0.3,4.3,0.9,5c0.8,0.9,2,1.3,3.7,1.3h1.5v1.2h-18.3v-1.2h1.5c1.8,0,3.1-0.6,3.9-1.6c0.5-0.7,0.7-2.2,0.7-4.6V86.5h-5.2
		c-2,0-3.4,0.1-4.3,0.4c-1.1,0.4-2,1.2-2.8,2.3c-0.8,1.1-1.3,2.7-1.4,4.6l-1.2,0l0.5-10.1L395.4,83.8z"/>
	<path class="st1" d="M417.6,125.7v1.2h-18.5v-1.2l1.5,0c1.8,0,3.1-0.5,3.9-1.6c0.5-0.7,0.8-2.3,0.8-4.9V91.4c0-2.2-0.1-3.6-0.4-4.3
		c-0.2-0.5-0.7-1-1.3-1.4c-0.9-0.5-1.9-0.8-2.9-0.8h-1.5v-1.2h18.5V85h-1.6c-1.8,0-3,0.5-3.8,1.6c-0.5,0.7-0.8,2.3-0.8,4.9v27.9
		c0,2.2,0.1,3.6,0.4,4.3c0.2,0.5,0.7,1,1.3,1.4c0.9,0.5,1.9,0.8,2.9,0.8L417.6,125.7z"/>
	<path class="st1" d="M418.3,83.8H430l26.4,32.3V91.3c0-2.7-0.3-4.3-0.9-5c-0.8-0.9-2-1.3-3.7-1.3h-1.5v-1.2h15V85h-1.5
		c-1.8,0-3.1,0.5-3.9,1.6c-0.5,0.7-0.7,2.2-0.7,4.6v36.3l-1.1,0l-28.4-34.7v26.5c0,2.6,0.3,4.3,0.9,5c0.8,0.9,2,1.3,3.7,1.3h1.5v1.2
		h-15v-1.2h1.5c1.8,0,3.1-0.6,3.9-1.6c0.5-0.7,0.7-2.2,0.7-4.7v-30c-1.2-1.5-2.2-2.4-2.8-2.9c-0.6-0.5-1.6-0.9-2.8-1.3
		c-0.6-0.2-1.5-0.3-2.8-0.3L418.3,83.8z"/>
	<path class="st1" d="M506.2,82.8l1.1,13.6h-1.1c-1.1-3.4-2.6-5.9-4.4-7.7c-2.6-2.5-5.9-3.7-9.9-3.7c-5.5,0-9.7,2.2-12.5,6.5
		c-2.4,3.7-3.6,8-3.6,13.1c0,4.1,0.8,7.9,2.4,11.2c1.6,3.4,3.7,5.9,6.3,7.5c2.6,1.6,5.2,2.4,7.9,2.4c1.6,0,3.1-0.2,4.6-0.6
		c1.5-0.4,2.9-1,4.3-1.8l0-12.5c0-2.2-0.2-3.6-0.5-4.2c-0.3-0.7-0.8-1.2-1.5-1.5c-0.7-0.3-1.9-0.5-3.6-0.5v-1.2l16.7,0v1.2l-0.8,0
		c-1.7,0-2.8,0.5-3.4,1.7c-0.4,0.8-0.6,2.3-0.6,4.6v13.2c-2.4,1.3-4.8,2.3-7.2,2.9c-2.4,0.6-5,0.9-7.9,0.9c-8.3,0-14.7-2.7-19-8
		c-3.2-4-4.9-8.6-4.9-13.9c0-3.8,0.9-7.4,2.7-10.9c2.2-4.1,5.1-7.3,8.9-9.5c3.2-1.8,6.9-2.8,11.2-2.8c1.6,0,3,0.1,4.3,0.4
		c1.3,0.3,3.1,0.8,5.4,1.7c1.2,0.4,2,0.7,2.4,0.7c0.4,0,0.7-0.2,1-0.5c0.3-0.4,0.5-1.1,0.5-2.2H506.2z"/>
</g>
</svg>