<svg id="Layer_2" xmlns="http://www.w3.org/2000/svg" viewBox="0 0 648.3 126.4">
  <style>
    .st0{fill:#1874BD;} .st1{fill:#CCCCCC;}
  </style>
  <g>
    <g>
      <g>
        <g>
          <g>
            <path class="st0" d="M54.104 13.595c-6 2.125-9 8.75-6.875 14.625 1.374 3.75 4.5 6.375 8.124 7.25 1.625.375 3.5 1 4.375 3l4.5 9.625c.624 1.375.5 2.375-.376 4.25-.375 1.125-.5 2.375 0 3.625 1 2.75 4 4.125 6.625 3.125 2.75-1 4.124-4 3.124-6.625-.375-1.25-1.25-2.125-2.25-2.75-2-1.125-2.625-1.75-3-3.125L65.98 36.22c-.5-2.125-.126-3.25 1.124-4.875 2.25-3 3.125-7 1.75-10.875-1.625-4.625-6.125-7.625-10.75-7.625-1.375 0-2.625.25-4 .75m29 22.625c-2.625 3-3.25 7.125-2.25 10.625.5 1.5.875 3.5-.375 5.25l-6 8.75c-.876 1.125-1.876 1.625-3.876 1.875-1.125.125-2.375.75-3.125 1.75-1.876 2.25-1.626 5.5.624 7.375s5.5 1.625 7.375-.625c.874-1 1.25-2.125 1.25-3.375 0-2.25.25-3.25 1.25-4.125l7.75-7.25c1.5-1.5 2.75-1.75 4.75-1.375 3.75.5 7.624-.875 10.25-4 4.124-4.875 3.5-12-1.376-16.125-2.125-1.875-4.75-2.75-7.375-2.75-3.376-.125-6.626 1.25-8.876 4M13.23 41.97c-1.126 6.25 3 12.25 9.25 13.375 4 .75 7.75-.625 10.374-3.375 1.125-1.125 2.625-2.5 4.75-2.25l10.625.875c1.5.125 2.374.75 3.5 2.5.75.875 1.874 1.625 3.124 1.875 2.875.5 5.5-1.375 6-4.25s-1.375-5.5-4.25-6c-1.25-.25-2.5 0-3.5.625-2 1.125-2.875 1.375-4.25 1l-10.25-3.125c-2-.625-2.875-1.5-3.625-3.5-1.376-3.5-4.626-6.25-8.5-6.875-.626-.125-1.376-.125-2-.125-5.5-.25-10.25 3.625-11.25 9.25m28 13.25c-.876 1-1.25 2.125-1.25 3.375 0 2.25-.25 3.25-1.25 4.125l-7.75 7.25c-1.5 1.5-2.75 1.75-4.75 1.375-3.75-.5-7.626.875-10.25 4-4.126 4.875-3.5 12 1.374 16.125 4.875 4.125 12 3.5 16.125-1.375 2.624-3 3.25-7.125 2.25-10.625-.5-1.5-.876-3.5.374-5.25l6-8.75c.875-1.125 1.875-1.75 3.875-1.875 1.25-.25 2.374-.75 3.124-1.75 1.875-2.25 1.625-5.5-.625-7.375-1-.875-2.126-1.25-3.376-1.25-1.375.25-2.875.875-3.875 2m4.75 12.125c-2.75 1-4.126 4-3.126 6.625.375 1.25 1.25 2.125 2.25 2.75 2 1.125 2.625 1.75 3 3.125L50.48 90.22c.5 2.125.124 3.25-1.126 4.875-2.25 3-3.125 7-1.75 10.875 2.125 6 8.75 9 14.625 6.875 6-2.125 9-8.75 6.874-14.625-1.375-3.75-4.5-6.375-8.125-7.25-1.626-.375-3.5-1-4.376-3l-4.5-9.625c-.625-1.375-.5-2.375.375-4.25.374-1.125.5-2.375 0-3.625-.75-2.125-2.75-3.5-4.876-3.5-.375 0-1 .125-1.625.375m37.75 7.25c-1.126 1.125-2.626 2.5-4.75 2.25l-10.626-.875c-1.375-.125-2.375-.75-3.5-2.5-.75-.875-1.875-1.625-3.125-1.875-2.876-.5-5.5 1.375-6 4.25s1.374 5.5 4.25 6c1.25.25 2.5 0 3.5-.625 2-1.125 2.874-1.375 4.25-1l10.25 3.125c2 .625 2.874 1.5 3.624 3.375 1.5 3.5 4.625 6.25 8.5 6.875 6.25 1.125 12.25-3 13.375-9.25 1.124-6.25-3-12.25-9.25-13.375-.75-.125-1.376-.125-2-.125-3.376.125-6.376 1.5-8.5 3.75"/>
          </g>
        </g>
      </g>
    </g>
    <g>
      <path class="st1" d="M44.612 115.863c3.625 3.5 8.5 5.625 13.875 5.625 5.5 0 10.375-2.25 14-5.75s5.875-8.375 6-13.75c0-.5.125-.875.25-1.375.625-1.25 2.125-1.625 3.375-1 4.75 2.5 10.125 3 14.875 1.625s9-4.5 11.75-9c0-.125 0-.125.125-.25l2.125 1.25-2.125-1.25c2.75-4.75 3.375-10.125 2-15-1.25-4.875-4.375-9.25-8.875-12-.375-.25-.75-.5-1-.875-.75-1.125-.375-2.625.75-3.375l1.25 2.125-1.25-2.125c4.625-2.875 7.625-7.25 8.875-12.125 1.25-4.75.625-10-2-14.625l-.125-.125c-2.75-4.75-7.125-7.875-12-9.25s-10.125-.875-14.875 1.75c-.375.25-.75.375-1.25.375-1.375 0-2.5-1-2.5-2.375l2.5-.125-2.5.125c-.125-5.375-2.5-10.25-6.125-13.75s-8.5-5.625-13.875-5.625c-5.5 0-10.375 2.25-14 5.75s-5.875 8.375-6 13.75c0 .5 0 .875-.25 1.375-.625 1.25-2.125 1.625-3.375 1-4.75-2.5-10.125-3-14.875-1.625s-9 4.5-11.75 9c0 .125 0 .125-.125.25l-2.125-1.25 2.125 1.25c-2.75 4.75-3.25 10.125-2 15s4.375 9.25 8.875 12c.375.25.75.5 1 .875.75 1.125.375 2.625-.75 3.375l-1.25-2.125 1.25 2.125c-4.625 2.875-7.625 7.25-8.875 12.125-1.25 4.75-.625 10 2 14.625l.125.125c2.75 4.75 7.125 7.875 12 9.25s10.125.875 14.875-1.75c.375-.25.75-.375 1.25-.375 1.375 0 2.5 1 2.5 2.375l-2.5.125 2.5-.125c.25 5.5 2.625 10.375 6.125 13.75m14 10.625c-6.75 0-12.875-2.75-17.375-7-3.625-3.5-6.25-8.25-7.25-13.5-5.125 1.875-10.5 2.125-15.5.75-6.125-1.625-11.5-5.625-14.875-11.5l2.125-1.25-2.125 1.25c0-.125-.125-.125-.125-.25-3.25-5.75-4-12.25-2.5-18.25 1.25-5 4-9.5 8.125-13-4.25-3.375-7.125-8-8.375-13-1.625-6.125-.875-12.75 2.5-18.75 0-.125.125-.125.125-.25 3.375-5.75 8.625-9.625 14.625-11.25 4.875-1.375 10.25-1.25 15.25.5.875-5.375 3.375-10.125 7.125-13.75 4.5-4.375 10.625-7.125 17.5-7.125 6.75 0 12.875 2.625 17.25 7 3.625 3.5 6.25 8.25 7.25 13.5 5.125-1.875 10.5-2.125 15.5-.75 6.125 1.625 11.5 5.625 14.875 11.5l-2.125 1.25 2.125-1.25c0 .125.125.125.125.25 3.25 5.75 4 12.25 2.5 18.25-1.25 5-4 9.5-8.125 13 4.25 3.375 7 8 8.375 13 1.625 6.125.875 12.75-2.5 18.75 0 .125-.125.125-.125.25-3.375 5.75-8.625 9.625-14.625 11.25-4.875 1.375-10.25 1.25-15.25-.5-.875 5.375-3.375 10.125-7.125 13.75-4.5 4.375-10.625 7.125-17.375 7.125"/>
    </g>
    <g>
      <path class="st0" d="M145.93 60.986c0 3.132.418 6.055 1.254 8.77.835 2.713 2.087 5.218 3.55 7.515 1.46 2.297 3.34 4.176 5.636 5.847 2.088 1.67 4.593 2.923 7.307 3.758 2.714.835 5.637 1.252 8.77 1.252 2.295 0 4.383-.208 6.262-.626 1.878-.417 3.548-1.043 5.22-1.67 1.46-.626 2.922-1.46 4.174-2.087 1.253-.835 2.088-1.46 2.923-2.088.835-.626 1.462-1.252 1.88-1.67.208-.418.417-.626.417-.835l-5.01-6.89-.627.626c-.418.418-1.044 1.044-2.088 1.67-.836.627-1.88 1.253-3.133 2.088-1.252.836-2.714 1.462-4.384 1.88-1.67.417-3.55.626-5.428.626-2.297 0-4.594-.418-6.68-1.253-1.88-1.044-3.76-2.296-5.22-3.967-1.462-1.67-2.715-3.55-3.55-5.845-1.044-2.297-1.462-4.594-1.462-7.1 0-2.713.418-5.218 1.253-7.306.835-2.09 2.088-3.968 3.55-5.43 1.46-1.46 3.34-2.714 5.22-3.55 2.087-.834 4.174-1.25 6.47-1.25.836 0 1.88 0 2.924.207 1.044.21 1.88.418 2.923.627.835.21 1.88.626 2.505 1.044.835.417 1.253 1.044 1.88 1.46.417.627.626 1.254.626 2.09v3.13h8.768v-5.845c0-1.462-.417-2.714-1.044-3.967-.626-1.044-1.46-2.088-2.714-2.923-1.044-.835-2.296-1.67-3.758-2.088-1.46-.626-2.714-1.044-4.175-1.46-1.46-.42-2.922-.628-4.384-.836-1.46-.21-2.714-.21-3.758-.21-2.923 0-5.846.417-8.56 1.253-2.714.835-5.01 2.087-7.307 3.758-2.087 1.67-3.966 3.55-5.636 5.638-1.67 2.087-2.714 4.593-3.55 7.307-.626 2.505-1.043 5.22-1.043 8.35"/>
    </g>
    <g>
      <path class="st0" d="M198.554 82.228c0 1.67.418 2.923 1.253 3.758.626.835 1.88 1.253 3.758 1.253h8.77v-7.726h-2.924c-.417 0-.834-.21-1.252-.417-.21-.418-.417-.627-.417-1.253V40.472c0-1.67-.417-2.922-1.252-3.758-.835-.835-2.088-1.252-3.758-1.252h-8.77v7.933h2.924c.418 0 .835.21 1.253.418.208.21.417.626.417 1.253v37.162z"/>
    </g>
    <g>
      <path class="st0" d="M222.86 68.743c0-1.67.21-3.34.836-4.802.627-1.46 1.462-2.713 2.297-3.757 1.044-1.044 2.088-1.88 3.55-2.297 1.252-.626 2.713-.835 4.175-.835 1.46 0 2.923.21 4.384.836 1.253.626 2.505 1.253 3.55 2.297 1.043 1.044 1.878 2.296 2.296 3.758.626 1.462.835 2.924.835 4.803 0 1.67-.21 3.34-.835 4.802-.627 1.46-1.462 2.714-2.297 3.758-1.043 1.043-2.295 1.88-3.548 2.296-1.253.625-2.714.834-4.384.834-1.462 0-2.923-.21-4.176-.835-1.253-.627-2.505-1.254-3.55-2.297-1.043-1.044-1.878-2.297-2.296-3.758-.626-1.462-.835-3.132-.835-4.802m-9.394 0c0 2.923.626 5.428 1.67 7.933 1.044 2.297 2.506 4.385 4.385 6.055 1.88 1.67 3.967 3.132 6.473 3.968 2.505 1.043 5.01 1.46 7.933 1.46s5.637-.417 7.934-1.46c2.505-.836 4.593-2.297 6.472-3.967 1.88-1.67 3.34-3.757 4.385-6.263 1.043-2.296 1.67-5.01 1.67-7.724 0-2.923-.627-5.637-1.67-7.934-1.044-2.298-2.506-4.385-4.385-6.264-1.88-1.67-3.967-3.132-6.472-3.967-2.505-.836-5.22-1.463-7.934-1.463-2.922 0-5.428.418-7.933 1.462-2.506 1.043-4.593 2.295-6.472 3.966-1.878 1.67-3.34 3.758-4.384 6.263-1.044 2.296-1.67 5.01-1.67 7.933"/>
    </g>
    <g>
      <path class="st0" d="M259.728 74.032c0 3.34.626 6.055 1.67 8.142 1.044 2.088 2.505 3.55 4.384 4.594 1.88 1.043 4.176 1.46 6.89 1.46 1.67 0 3.132-.208 4.384-.625 1.462-.418 2.506-1.044 3.758-1.67 1.044-.836 2.088-1.462 2.923-2.506.627-1.044 1.253-2.088 1.67-2.923h.21v2.714c0 1.253.417 2.297 1.252 3.132.834.626 2.087 1.044 3.548 1.044h8.56V79.67h-2.923c-.417-.21-.835-.42-1.252-.627-.21-.21-.418-.627-.418-1.253V50.022H285.2v17.12c0 1.67-.21 3.34-.628 4.802-.417 1.462-1.043 2.923-2.087 3.967-.835 1.254-1.88 2.09-3.34 2.715-1.253.626-2.715 1.044-4.385 1.044-1.462 0-2.714-.42-3.55-1.045-.835-.626-1.46-1.46-1.67-2.505-.417-1.044-.417-2.506-.417-3.967v-17.12c0-1.67-.418-2.923-1.253-3.758s-2.088-1.253-3.758-1.253h-8.77v7.934h2.924c.418 0 .835.21 1.253.418.208.208.417.626.417 1.252v14.406z"/>
    </g>
    <g>
      <path class="st0" d="M318.614 80.25c-1.88 0-3.55-.418-4.802-1.462-1.46-1.044-2.505-2.297-3.13-3.967-.836-1.67-1.254-3.757-1.254-6.262 0-1.88.21-3.55.835-5.01.418-1.462 1.253-2.715 2.088-3.55.836-1.044 1.88-1.67 2.924-2.297 1.044-.416 2.296-.834 3.55-.834 1.46 0 2.922.418 3.966 1.044 1.253.626 2.088 1.462 2.923 2.505.835 1.044 1.252 2.297 1.67 3.758.418 1.462.626 2.715.626 4.176 0 2.087-.21 3.757-.836 5.22-.417 1.46-1.252 2.713-2.088 3.548-.835 1.044-1.88 1.67-2.922 2.088-1.044.835-2.297 1.043-3.55 1.043m-18.58-11.483c0 2.923.417 5.637 1.252 7.933.835 2.297 1.88 4.385 3.34 6.055 1.462 1.67 3.132 3.13 5.22 3.967 2.087.835 4.384 1.46 6.89 1.46 1.67 0 3.13-.208 4.384-.625 1.252-.418 2.296-.835 3.34-1.462.835-.626 1.67-1.252 2.297-1.88.626-.625 1.044-1.043 1.252-1.46.208-.418.417-.627.417-.627h.21v1.253c0 .627.207 1.463.416 1.88.21.626.835 1.044 1.462 1.253.417.626 1.252.835 2.505.835h8.56v-7.725h-2.923c-.417 0-.835-.21-1.253-.417-.208-.418-.417-.836-.417-1.253V40.58c0-1.67-.418-2.92-1.253-3.757-.835-.835-2.088-1.252-3.758-1.252h-8.77v7.726h2.924c.418 0 .835.208 1.253.417.21.21.418.626.418 1.253v8.56h-.208l-.418-.418-1.044-1.044c-.417-.417-1.252-.835-2.087-1.252-.836-.418-1.88-.836-3.132-1.044-1.252-.21-2.713-.418-4.175-.418-2.505 0-4.802.418-6.89 1.462-2.087.835-3.757 2.296-5.428 3.966-1.46 1.67-2.714 3.758-3.55 6.055-.416 2.088-.834 4.802-.834 7.934"/>
    </g>
    <g>
      <path class="st0" d="M359.413 66.358L365.05 50.7c.21-.627.418-1.462.626-2.297.21-.835.418-1.67.627-2.296.21-.836.417-1.462.417-1.88.21-.417.21-.835.21-.835h.208s0 .21.21.836c.207.417.207 1.043.416 1.88.21.834.418 1.46.627 2.295.21.835.418 1.67.627 2.297l5.637 15.658h-15.24zm-15.658 20.878h3.966c1.254 0 2.09-.21 2.924-.418.835-.208 1.253-.626 1.88-1.252.417-.627.834-1.462 1.252-2.506l3.967-10.647h19l3.966 10.647c0 1.044.416 1.88 1.042 2.506.418.626 1.044 1.044 1.67 1.252.627.21 1.67.418 2.924.418h4.175v-6.263h-1.043c-.626 0-1.044 0-1.46-.21-.42-.208-.628-.625-.836-1.252l-16.075-43.634h-7.725L347.304 79.51c-.21.628-.418 1.045-.835 1.254-.42.21-.836.417-1.463.21h-1.044v6.262z"/>
    </g>
    <g>
      <path class="st0" d="M391.77 68.905c0 2.714.417 5.428 1.46 7.725 1.045 2.296 2.297 4.384 3.967 6.054s3.76 3.132 6.264 3.967c2.506 1.045 5.012 1.462 7.934 1.462 1.88 0 3.758-.208 5.22-.626 1.67-.417 2.923-1.044 4.176-1.67 1.252-.626 2.296-1.253 3.13-1.88.836-.625 1.463-1.252 1.88-1.67l.627-.626-3.132-5.01s-.21.208-.418.626c-.208.418-.626.835-1.46 1.253-.627.416-1.463 1.043-2.298 1.46-.836.418-2.09.835-3.132 1.253-1.253.417-2.506.417-3.758.626-1.67 0-3.34-.21-5.01-.836-1.463-.626-2.924-1.46-4.177-2.505-1.252-1.045-2.087-2.507-2.923-4.177-.626-1.67-1.044-3.55-1.044-5.637 0-1.88.418-3.758 1.044-5.428.627-1.67 1.462-2.923 2.715-4.176 1.043-1.252 2.505-2.088 3.966-2.714 1.463-.626 3.133-1.044 5.012-1.044.626 0 1.46 0 2.297.21.834.208 1.46.417 2.295.625.418.626 1.044 1.043 1.462 1.46.417.418.626 1.045.626 1.67v2.09h6.472v-3.76c0-1.252-.417-2.296-1.044-3.34-.416-.835-1.25-1.67-2.295-2.296-1.044-.627-2.088-1.044-3.34-1.462-1.254-.417-2.297-.626-3.55-.835-1.253-.21-2.088-.21-3.132-.21-2.923 0-5.637.42-8.142 1.463-2.504 1.044-4.592 2.296-6.263 4.175-1.67 1.67-3.13 3.758-3.966 6.055-.834 2.297-1.46 4.802-1.46 7.725"/>
    </g>
    <g>
      <path class="st0" d="M435.887 76.452c0-1.253.417-2.506 1.044-3.34.627-.836 1.67-1.67 2.715-2.09 1.044-.416 2.296-.834 3.758-1.043 1.252-.21 2.714-.418 3.967-.418h5.428v1.044c0 1.46-.21 2.714-.626 4.175-.418 1.463-1.044 2.715-2.088 3.76-.835 1.043-1.88 2.087-3.132 2.713-1.253.627-2.505 1.044-3.967 1.044-1.46 0-2.923-.208-3.967-.835-1.043-.626-1.88-1.252-2.296-2.088-.626-.835-.835-1.88-.835-2.922m-7.1.417c0 1.878.42 3.548 1.045 4.8.627 1.462 1.67 2.506 2.923 3.55 1.253 1.044 2.505 1.67 3.967 2.088 1.46.418 3.132.626 4.593.626 1.67 0 3.34-.208 4.593-.835 1.253-.418 2.506-1.045 3.34-1.88.836-.626 1.67-1.46 2.297-2.088.627-.626 1.044-1.252 1.253-1.88.21-.416.417-.834.417-.834h.21V82.505c0 1.254.417 2.298 1.043 3.133.626.835 1.88 1.044 3.55 1.044h6.68v-6.055h-2.923c-.417 0-.835-.21-1.252-.417-.21-.21-.418-.627-.418-1.253v-15.66c0-2.086-.21-3.965-.626-5.636-.42-1.67-1.254-3.34-2.507-4.592-1.043-1.252-2.714-2.296-4.593-3.13-1.88-.628-4.384-1.045-7.516-1.045-.626 0-1.67 0-2.714.21-1.044.207-2.088.207-3.34.625-1.253.21-2.297.626-3.34 1.253-1.045.418-1.88 1.253-2.506 2.088-.626.835-1.044 1.88-1.044 3.132v3.758h6.68V57.87c0-.626.21-1.044.627-1.46.418-.42 1.044-.628 1.67-.836.627-.21 1.253-.418 2.088-.418.627 0 1.253-.21 1.67-.21 1.88 0 3.55.21 4.594.836 1.25.627 2.086 1.462 2.713 2.715.626 1.252.835 3.13.835 5.22v.625h-1.67c-1.044 0-2.297 0-3.758.21-1.462 0-3.132.208-4.802.417-1.67.207-3.34.625-5.01 1.25-1.67.628-3.133 1.254-4.385 2.298-1.253.835-2.297 2.088-3.132 3.55-.834 1.252-1.252 2.922-1.252 4.8"/>
    </g>
    <g>
      <path class="st0" d="M484.122 82.113c-2.088 0-3.967-.627-5.428-1.67-1.67-1.044-2.923-2.715-3.758-4.594-.835-1.88-1.253-4.385-1.253-6.89 0-2.088.21-3.967.835-5.637.627-1.67 1.253-2.923 2.297-4.176 1.044-1.044 2.088-1.88 3.34-2.505 1.253-.627 2.714-.835 4.176-.835 1.88 0 3.34.417 4.594 1.044 1.253.627 2.505 1.67 3.34 2.923.836 1.253 1.462 2.715 1.88 4.176.417 1.46.626 3.13.626 4.8 0 2.298-.21 4.385-.835 6.056-.627 1.67-1.462 3.13-2.297 4.175-1.044 1.045-2.088 1.88-3.34 2.298-1.462.417-2.923.835-4.176.835M466.376 68.75c0 2.924.417 5.43 1.044 7.935.835 2.296 1.88 4.384 3.34 6.054 1.462 1.67 3.132 3.13 5.22 3.966 2.087.835 4.175 1.46 6.68 1.46 1.88 0 3.34-.207 4.802-.625 1.253-.416 2.506-1.043 3.34-1.67 1.045-.625 1.67-1.252 2.298-2.087.626-.626 1.043-1.253 1.252-1.67.21-.418.418-.627.418-.627h.21V83.573c0 1.254.416 2.298 1.042 2.924.627.627 1.88 1.044 3.55 1.044h6.89v-6.054h-2.924c-.417 0-.835-.208-1.252-.417-.21-.21-.418-.627-.418-1.254v-39.25c0-1.67-.417-2.923-1.044-3.55-.835-.835-1.88-1.043-3.55-1.043h-7.097v6.054h2.923c.417 0 .835.21 1.252.418.21.21.418.626.418 1.252V55.18h-.21s-.208-.208-.417-.626c-.208-.418-.626-.835-1.252-1.46-.626-.628-1.252-1.045-2.087-1.672-.835-.626-1.88-1.044-3.34-1.46-1.253-.42-2.715-.627-4.385-.627-2.505 0-4.593.417-6.68 1.46-2.09.836-3.76 2.298-5.22 3.968-1.462 1.67-2.714 3.758-3.55 6.054-.835 2.297-1.252 5.01-1.252 7.934"/>
    </g>
    <g>
      <path class="st0" d="M516.037 64.54c.417-2.088 1.044-3.758 2.087-5.22 1.044-1.46 2.297-2.505 3.758-3.13 1.462-.627 3.132-1.045 5.01-1.045 1.463 0 2.924.418 4.177 1.044 1.25.625 2.295 1.67 3.13 3.13.836 1.462 1.253 3.132 1.253 5.22h-19.416zm-7.725 4.176c0 2.714.417 5.22 1.46 7.724.836 2.297 2.298 4.385 3.968 6.055s3.758 3.132 6.263 4.176c2.297 1.045 5.01 1.462 7.934 1.462 1.67 0 3.34-.21 4.802-.626 1.46-.418 2.713-.835 3.966-1.253 1.252-.626 2.088-1.044 2.923-1.67.834-.626 1.46-1.044 1.878-1.253l.626-.626-3.132-5.01-.417.417c-.418.21-.835.627-1.462 1.045-.626.417-1.46.835-2.296 1.252-.835.418-1.88.835-2.923 1.044-1.044.42-2.297.628-3.55.628-1.67 0-3.13-.21-4.593-.836-1.46-.626-2.713-1.252-3.965-2.296-1.253-1.044-2.088-2.297-2.714-3.967-.626-1.462-1.043-3.34-1.252-5.22h26.932v-.627-1.252-1.252c0-2.505-.417-4.593-1.044-6.68-.626-2.09-1.67-3.968-2.922-5.43-1.253-1.67-2.923-2.713-5.01-3.757-1.88-.834-4.177-1.252-6.89-1.46-2.715 0-5.012.417-7.308 1.46-2.297.836-4.176 2.297-5.846 3.967s-2.923 3.758-3.967 6.055c-.835 2.505-1.46 5.01-1.46 7.934"/>
    </g>
    <g>
      <path class="st0" d="M550.258 87.322h7.1v-16.91c0-.836 0-1.67.208-2.507 0-.835.208-1.46.417-2.296.418-1.254.835-2.507 1.462-3.76.626-1.252 1.46-2.296 2.296-3.13.836-.836 1.88-1.67 3.133-2.09 1.044-.625 2.297-.834 3.758-.834 1.462 0 2.506.21 3.34.835.837.42 1.463 1.254 1.88 2.09.418.834.627 1.878.836 2.922.208 1.044.208 2.297.208 3.55v22.13h7.1v-16.91c0-1.045 0-1.88.208-2.715 0-.835.208-1.67.417-2.297.417-1.253.834-2.505 1.46-3.55.627-1.043 1.462-2.087 2.297-2.922.835-.835 1.88-1.67 2.923-2.088 1.044-.417 2.297-.835 3.55-.835 1.46 0 2.505.21 3.34.626.835.42 1.46 1.045 1.88 1.88.416.835.625 1.88.834 2.923.21 1.044.21 2.297.21 3.55V82.52c0 1.67.416 2.923 1.043 3.55.835.834 1.88 1.043 3.55 1.043h7.097v-6.055h-2.923c-.416 0-.834-.208-1.25-.417-.21 0-.42-.417-.42-1.043V63.52c0-4.8-1.043-8.14-2.922-10.647-2.087-2.296-5.01-3.55-9.186-3.55-1.46 0-2.923.21-4.384.627-1.253.418-2.506 1.044-3.758 1.88-1.253.835-2.088 1.67-3.132 2.714-.835 1.043-1.46 2.087-2.088 3.13h-.21c-.625-2.713-1.878-4.8-3.757-6.262-1.88-1.462-4.384-2.088-7.516-2.088-1.46 0-2.923.21-4.175.626-1.253.418-2.506 1.044-3.758 1.88-1.044.835-2.088 1.67-2.923 2.714-.834 1.043-1.46 2.087-1.878 3.13h-.21v-.625-2.923c0-1.254-.417-2.298-1.043-3.133-.836-.626-1.88-1.044-3.55-1.044h-6.68v6.055h2.922c.417 0 .835.21 1.253.418.208.208.417.626.417 1.252v29.647z"/>
    </g>
    <g>
      <path class="st0" d="M612.665 93.782l-2.923 5.01.626.627c.418.416 1.044.834 1.67 1.25.836.42 1.67.837 2.715 1.254 1.043.418 2.296.626 3.758.626 1.67 0 3.34-.417 4.803-1.043 1.46-.627 2.922-1.67 3.966-2.923 1.252-1.253 2.087-2.923 2.922-4.802l14.615-36.12c.21-.625.626-1.043.835-1.252.417-.21.835-.21 1.46-.21h1.045v-6.053h-4.175c-1.044 0-1.88 0-2.506.417-.626.21-1.252.627-1.67 1.044-.417.627-.835 1.253-1.253 2.297l-7.724 20.878c-.21.626-.42 1.252-.628 2.088-.21.627-.417 1.253-.417 1.67 0 .418-.21.627-.21.836h-.208s0-.21-.21-.835c0-.417-.207-1.043-.416-1.67-.208-.626-.417-1.252-.626-2.087l-8.35-20.878c-.418-1.044-.836-1.67-1.253-2.297-.417-.626-1.043-.835-1.67-1.044-.626-.208-1.46-.417-2.505-.417h-4.176V56.2h.835c.626 0 1.043 0 1.46.21.42.21.627.627.836 1.253l12.528 29.23-1.67 3.966c-.627 1.67-1.67 2.922-2.714 3.966-1.044.835-2.297 1.46-3.76 1.46-.834 0-1.46-.208-2.086-.417-.627-.21-1.253-.627-1.67-.836-.418-.417-.836-.626-1.044-.835 0-.21-.21-.418-.21-.418"/>
    </g>
  </g>
</svg>